<?xml version="1.0" encoding="utf-8"?>
<!DOCTYPE svg PUBLIC "-//W3C//DTD SVG 1.1//EN" "http://www.w3.org/Graphics/SVG/1.1/DTD/svg11.dtd">
<svg version="1.1" id="Layer_1" xmlns="http://www.w3.org/2000/svg" xmlns:xlink="http://www.w3.org/1999/xlink" width="256px" height="256px" x="0px" y="0px"
	 viewBox="0 0 256 256" enable-background="new 0 0 256 256">
<path id="shadow" opacity="0.5" d="M179.5,219.6c-23.9,0-45.2,2-59,5.2c-31.7,1-55.7,6-55.7,12c0,6.7,30.1,12.2,67.3,12.2
	c14.6,0,28.1-0.8,39.2-2.3c2.7,0.1,5.4,0.1,8.2,0.1c41.4,0,75-6.1,75-13.6C254.5,225.7,221,219.6,179.5,219.6z"/>
<g id="tar">
	<g>
		<path fill="#C5143E" d="M75,251c-41.4,0-70.3-9.1-70.3-17.3c0-0.6,0.2-1.3,0.6-1.9l0.1-0.2l13.5-47.7v-0.3
			c0-4.9,21-11.8,55.2-11.8s55.2,6.9,55.2,11.8v0.3l15.3,47.4l0.1,0.2c0.5,0.8,0.7,1.5,0.7,2.2C145.4,241.8,116.5,251,75,251z"/>
		<path fill="#98134B" d="M74,173.6c14.1,0,27.5,1.3,37.8,3.6c11.4,2.5,14.9,5.5,15.3,6.4v0.5l0.2,0.6l15.1,46.9l0.2,0.5l0.3,0.4
			c0.2,0.3,0.4,0.7,0.4,1.1c0,2-4.9,6.2-18.2,9.8C111.8,247,94,249,75,249s-36.8-2-50.1-5.5c-13.4-3.6-18.2-7.8-18.2-9.8
			c0-0.3,0.1-0.6,0.3-1l0.2-0.4l0.1-0.5l13.3-47.2l0.2-0.5v-0.5c0.4-0.9,4-3.8,15.3-6.4C46.5,174.9,59.9,173.6,74,173.6 M74,169.6
			c-31.6,0-57.2,6.2-57.2,13.8L3.6,230.7c-0.5,1-0.8,1.9-0.8,2.9C2.7,244.3,35.1,253,75,253s72.3-8.7,72.3-19.3
			c0-1.1-0.4-2.2-1.1-3.3l-15.1-46.9C131.2,175.8,105.6,169.6,74,169.6L74,169.6z"/>
	</g>
	<ellipse fill="#6C0F3D" cx="74.4" cy="185.6" rx="42.7" ry="8.8"/>
	<path fill="#E05F7D" d="M75.6,199.1c-26.2,0-48-5.4-52.7-12.7c0.7,8.4,23.6,15.2,51.8,15.2c24.8,0,45.4-5.2,50.6-12.2
		C117.2,195.1,98,199.1,75.6,199.1z"/>
</g>
<path fill="#F18536" stroke="#A85317" stroke-width="0.25" stroke-miterlimit="10" d="M244.2,156.8C235.5,121.6,208.7,80.3,164,49
	c-13.5-9.5-28.2-15.4-41.7-19.1c-19.6-30.6-38.8-42.6-48.5-5.3c-9,2.5-17.2,6.3-23.9,11.1c-39.4-6.2-48.4,6.6-20.6,35.6
	c0,9.4,2.3,16.2,5.7,22.2c-0.1,0.8-0.2,1.6-0.2,2.4c0,7.5,5.6,13.7,13.2,15.4c4,5.5,8,11.6,11,19.8c8.5,23,7.2,35.7,6.6,38.6
	c2.7-0.1,5.5-0.1,8.4-0.1c31.6,0,57.2,6.2,57.2,13.8l8.1,25.3l0,0c1,3,1.7,5.3,1.9,6c-2.7,1.8-10.2,7.7-9.2,18.9
	c1.2,14.3,18.8,15.3,26.2,15.3c15.7,0,57.8-5.2,77-30C249.8,200.1,250,180.5,244.2,156.8z"/>
<path fill="#A85317" d="M244.2,156.8C235.5,121.6,208.7,80.3,164,49c-13.5-9.5-28.2-15.4-41.7-19.1c-19.6-30.6-38.8-42.6-48.5-5.3
	c-9,2.5-17.2,6.3-23.9,11.1c-39.4-6.2-48.4,6.6-20.6,35.6c0,9.4,2.3,16.2,5.7,22.2c-0.1,0.8-0.2,1.6-0.2,2.4
	c0,7.5,5.6,13.7,13.2,15.4c4,5.5,8,11.6,11,19.8c9.8,26.5,6.6,38.8,6.6,38.8s1.9-0.2,6.2-0.1c0,0,0.5-15.4-6.8-37.3
	c-2.6-7.9-7.8-17.8-11.7-23c-7.2-1.6-14.5-5.1-14.5-12.3c0-0.8,0.6-5.1,0.7-5.8c-3.9-5.7-5.8-14.9-4.6-22.9
	C3.8,40.1,23.4,37.2,46.1,40.6c-0.4,1.4-1.5,6.1,0,6.5c4.2-7.2,13.1-13,27.9-16.5c0.2,2.8,1.4,5.2,1.4,5.2s3.3-1.3,4.3-1.5
	C80.4,0.8,96.2-5,119.8,36.7c0.8,0.2,3,2.1,3,2.1s0.5-2.1,0.5-2.8c10.7,2.9,29.9,13.2,41.6,21.4c8.5,6,15.1,11.8,22.1,18.2
	c-7.8,16.5-22.4,17-17.6,23.1c5.3,6.6,19.4-2.3,27-13.6c2.4,2.5,4.7,5.1,6.9,7.7c-9.4,15.7-24.3,18.2-20.4,25.8
	c4.2,8.1,20.4-2.1,29.4-14.9c2.5,3.5,4.5,7.3,6.7,10.8c-5.5,12.5-22.3,15.4-18.9,22.3c3.1,6.3,17.5,0,26-10.7
	c5.3,10.3,9.1,20.6,11.9,30.6c6.3,22.5,4.3,42.2-8.4,59c-16.4,21.8-53.9,26.6-69,26.6c-7.1,0-25,1-25-11.2c0-18,29.8-18.9,29.8-18.9
	s40.7,0.8,55.9-17.7c2.2-2.7,13.1-17.2,7.8-19.3c-1.4-0.5-0.7,8.1-12.6,19.4c-3.5,3.4-13.9,9-26.5,11.7c-14,3-23.8,1-38.3,4.5
	c3.8-4.7,9.8-19.6,5.2-19.8c-1-0.1-2.3,6.1-5,11.8c-2.2,4.9-5.9,9.6-5.9,9.6s-1.6,0.8-3.9,1.9c0,0,0,0,0,0s-11.3,5.8-10.2,19.5
	c1.2,14.3,18.8,15.3,26.2,15.3c15.7,0,57.8-5.2,77-30C249.8,200.1,250,180.5,244.2,156.8z"/>
<path fill="#F9B663" d="M73.9,137.9c6.2,13.8,10.5,29.8,11,32c20.8,1,37.6,4.7,43.8,9.5c5.6-21.3,6.4-50.8,1.8-63.4
	c-3.5-9.5-15.8-15.7-33.8-12.9c-31.2,4.8-35,15.6-31,24.9C67.2,131.3,69.9,134.5,73.9,137.9z"/>
<g id="face_1_">
	<g id="eyes">
		<circle fill="#FFFFFF" cx="100.5" cy="82.5" r="16.2"/>
		<circle fill="#FFFFFF" cx="53.6" cy="94.8" r="15.5"/>
		<path fill="#A85317" d="M101.6,64c-9.6,0-17.4,7.9-17.4,17.6c0,9.7,7.8,17.6,17.4,17.6S119,91.2,119,81.5
			C119,71.8,111.2,64,101.6,64z M109.9,92.8c0.1-0.6,0.2-1.2,0.2-1.8c0-4-3.2-7.3-7.2-7.3c-4,0-7.2,3.3-7.2,7.3
			c0,1.3,0.3,2.5,0.9,3.6c-5.2-2-8.9-7.1-8.9-13.1c0-7.8,6.2-14,13.9-14s13.9,6.3,13.9,14C115.5,86.2,113.3,90.3,109.9,92.8z"/>
		<path fill="#A85317" d="M53.7,78.2c-9,0-16.3,7.4-16.3,16.4c0,9.1,7.3,16.4,16.3,16.4S70,103.7,70,94.7
			C70,85.6,62.7,78.2,53.7,78.2z M61.4,105.2c0.1-0.5,0.2-1.1,0.2-1.7c0-3.8-3-6.8-6.8-6.8c-3.7,0-6.8,3.1-6.8,6.8
			c0,1.2,0.3,2.4,0.9,3.4c-4.9-0.6-9.1-5.9-9.1-11.5c0-7.3,5.8-13.9,13.8-13.9c7.2,0,13.1,5.9,13.1,13.1
			C66.8,99,64.7,102.8,61.4,105.2z"/>
	</g>
	<path fill="#A85317" d="M91.8,97.7c-1.3-3.6-9.7-1.1-16.5,1.3s-10,6-9.5,7.8c0.9,3.7,13.6,8.5,17.4,6.5
		C89.6,110.1,93,101.3,91.8,97.7z M79,106.6c-3,1.2-5.9,1-6.5-0.3c-0.5-1.4,1.5-3.4,4.6-4.6c3-1.2,5.9-1,6.5,0.3
		C84,103.3,82,105.4,79,106.6z"/>
	<path fill="#A85317" d="M87.9,122.1c0,0-2,2.2-3.4,7.2c-0.6,2.4-3.4,0.7-3-1.3c0.7-3.3,2.2-7.2,2.8-8.4c-1.3-2.1-3-6.6-3-6.6
		l3.4-1.8c0,0,2.7,7,4.3,7.3c1.6,0.3,8.8,1.5,11.6,2.3c3,0.8,4.2,4.9-0.2,3.8C95.8,123.4,87.9,122.1,87.9,122.1z"/>
	<g id="mus">
		<path fill="#A85317" d="M133.1,112.8c-3.2,0-24.2-1.3-26.6-1.6c-2.4-0.3-4.2-3.7,1.5-3.2c5.7,0.4,18.7,1.2,25.3,1.5
			C136.1,109.6,136.4,112.8,133.1,112.8z"/>
		<path fill="#A85317" d="M133,125.1c-3.3-0.7-24.4-6.6-26.8-7.4c-2.4-0.8-3.5-4.5,2.2-2.8c5.7,1.6,18.8,5.3,25.5,7
			C136.7,122.6,136.3,125.8,133,125.1z"/>
		<path fill="#A85317" d="M53.4,130.9c1.4-1.8,11.4-13.1,12.7-14.3s4.3-0.5,1.5,2.5c-2.7,3-9,10-12,13.6
			C54.3,134.3,52,132.7,53.4,130.9z"/>
		<path fill="#A85317" d="M58.3,139c1.4-2.1,11.3-15.4,12.6-16.9c1.2-1.5,4.4-1.1,1.7,2.5c-2.7,3.6-8.9,11.8-11.9,16
			C59.3,142.5,56.9,141.1,58.3,139z"/>
	</g>
	<g id="eyebrow">
		<path fill="#A85317" d="M58,73.7c-0.3-1.1-1.3-8.5-1.3-9.4c0-0.9,2.6-2.3,2.8-0.3c0.2,2,0.8,6.6,1.3,9C61,73.9,58.3,74.8,58,73.7z
			"/>
		<path fill="#A85317" d="M51.5,73.5c0-1,0.8-7.6,1-8.3c0.2-0.8,3-1.4,2.8,0.3c-0.3,1.8-0.8,5.9-0.9,7.9
			C54.3,74.3,51.5,74.5,51.5,73.5z"/>
		<path fill="#A85317" d="M73.4,57.7c0.9,0.9,5.9,7.7,6.4,8.6c0.5,0.9-1.1,3.4-2.4,1.5c-1.3-1.9-4.4-6.1-6.1-8.2
			C70.6,58.7,72.5,56.7,73.4,57.7z"/>
		<path fill="#A85317" d="M79.2,56.4c0.9,0.5,6.1,4.9,6.7,5.6c0.5,0.6-0.4,3.4-1.8,2.1c-1.4-1.2-4.6-4-6.3-5.3
			C77,58.3,78.3,55.9,79.2,56.4z"/>
	</g>
</g>
<path fill="#F9B663" d="M108,35.9c0,5.6-13.8,1.7-17.9-0.9c-3.7-2.3-1.4-17.9,3-17.9C97.4,17.1,108,30.3,108,35.9z"/>
<path fill="#F9B663" d="M40,55.1c0.4,1.9-2.1,6.6-5.3,7.9c-3.8,1.4-12.4-12.6-10.6-13.5C28.9,47.1,39.4,51.7,40,55.1z"/>
</svg>
